<svg xmlns="http://www.w3.org/2000/svg" viewBox="0 0 1600 900">
  <defs>
    <linearGradient id="sky" x1="0" x2="1" y1="0" y2="1">
      <stop offset="0%" stop-color="#18344a"/>
      <stop offset="55%" stop-color="#457180"/>
      <stop offset="100%" stop-color="#f0c98c"/>
    </linearGradient>
    <linearGradient id="peakA" x1="0" x2="0" y1="0" y2="1">
      <stop offset="0%" stop-color="#324d59"/>
      <stop offset="100%" stop-color="#0e1927"/>
    </linearGradient>
    <linearGradient id="peakB" x1="0" x2="1" y1="0" y2="1">
      <stop offset="0%" stop-color="#5f7a77"/>
      <stop offset="100%" stop-color="#1c2635"/>
    </linearGradient>
  </defs>
  <rect width="1600" height="900" fill="url(#sky)"/>
  <circle cx="1270" cy="280" r="220" fill="#ffe4a6" opacity="0.85"/>
  <path d="M0 580 170 360 300 580 420 310 560 580 760 220 970 580 1180 260 1350 580 1510 320 1600 430 1600 900 0 900Z" fill="url(#peakA)"/>
  <path d="M0 650 160 520 290 640 430 480 560 670 740 430 910 680 1080 470 1250 650 1410 500 1600 670 1600 900 0 900Z" fill="url(#peakB)" opacity="0.9"/>
  <path d="M0 760 300 710 520 760 860 690 1140 760 1600 700 1600 900 0 900Z" fill="#c9b28e" opacity="0.7"/>
  <g fill="#ffffff" opacity="0.4">
    <circle cx="220" cy="160" r="2"/>
    <circle cx="420" cy="120" r="2"/>
    <circle cx="980" cy="110" r="2"/>
    <circle cx="1200" cy="180" r="2"/>
    <circle cx="1390" cy="160" r="2"/>
  </g>
</svg>
