<svg xmlns="http://www.w3.org/2000/svg" viewBox="0 0 1600 900">
  <defs>
    <linearGradient id="sky" x1="0" x2="1" y1="0" y2="1">
      <stop offset="0%" stop-color="#19344c"/>
      <stop offset="55%" stop-color="#2d5566"/>
      <stop offset="100%" stop-color="#c9b188"/>
    </linearGradient>
    <linearGradient id="mountainBack" x1="0" x2="0" y1="0" y2="1">
      <stop offset="0%" stop-color="#25394e"/>
      <stop offset="100%" stop-color="#172434"/>
    </linearGradient>
    <linearGradient id="mountainFront" x1="0" x2="0" y1="0" y2="1">
      <stop offset="0%" stop-color="#1a2a3d"/>
      <stop offset="100%" stop-color="#101927"/>
    </linearGradient>
  </defs>
  <rect width="1600" height="900" fill="url(#sky)"/>
  <circle cx="1260" cy="250" r="230" fill="#c7bca2" opacity="0.86"/>
  <path d="M0 620 160 450 310 650 470 390 630 700 810 330 1010 720 1180 390 1380 720 1530 470 1600 560 1600 900 0 900Z" fill="url(#mountainBack)"/>
  <path d="M0 710 150 580 270 690 420 540 560 710 740 500 905 740 1110 430 1285 770 1450 610 1600 730 1600 900 0 900Z" fill="url(#mountainFront)" opacity="0.96"/>
  <path d="M0 810 290 760 520 805 760 750 1040 810 1320 770 1600 815 1600 900 0 900Z" fill="#6a625c" opacity="0.72"/>
</svg>
